<svg xmlns="http://www.w3.org/2000/svg" viewBox="0 0 100 100" role="img" aria-label="Harmonic Beacon mark">
  <path d="M 86.00 50.00 L 85.95 51.26 L 85.80 52.51 L 85.56 53.76 L 85.21 55.01 L 84.77 56.25 L 84.24 57.48 L 83.61 58.71 L 82.89 59.92 L 82.08 61.12 L 81.18 62.31 L 80.19 63.49 L 79.12 64.64 L 77.98 65.78 L 76.75 66.90 L 75.46 68.00 L 74.09 69.08 L 72.66 70.13 L 71.16 71.16 L 69.61 72.16 L 68.00 73.14 L 66.34 74.09 L 64.64 75.01 L 62.90 75.90 L 61.12 76.75 L 59.32 77.58 L 57.48 78.37 L 55.63 79.12 L 53.76 79.85 L 51.88 80.53 L 50.00 81.18 L 48.12 81.79 L 46.24 82.36 L 44.37 82.89 L 42.52 83.38 L 40.68 83.83 L 38.88 84.24 L 37.10 84.61 L 35.36 84.93 L 33.66 85.21 L 32.00 85.45 L 30.39 85.65 L 28.84 85.80 L 27.34 85.91 L 25.91 85.98 L 24.54 86.00 L 23.25 85.98 L 22.02 85.91 L 20.88 85.80 L 19.81 85.65 L 18.82 85.45 L 17.92 85.21 L 17.11 84.93 L 16.39 84.61 L 15.76 84.24 L 15.23 83.83 L 14.79 83.38 L 14.44 82.89 L 14.20 82.36 L 14.05 81.79 L 14.00 81.18 L 14.05 80.53 L 14.20 79.85 L 14.44 79.12 L 14.79 78.37 L 15.23 77.58 L 15.76 76.75 L 16.39 75.90 L 17.11 75.01 L 17.92 74.09 L 18.82 73.14 L 19.81 72.16 L 20.88 71.16 L 22.02 70.13 L 23.25 69.08 L 24.54 68.00 L 25.91 66.90 L 27.34 65.78 L 28.84 64.64 L 30.39 63.49 L 32.00 62.31 L 33.66 61.12 L 35.36 59.92 L 37.10 58.71 L 38.88 57.48 L 40.68 56.25 L 42.52 55.01 L 44.37 53.76 L 46.24 52.51 L 48.12 51.26 L 50.00 50.00 L 51.88 48.74 L 53.76 47.49 L 55.63 46.24 L 57.48 44.99 L 59.32 43.75 L 61.12 42.52 L 62.90 41.29 L 64.64 40.08 L 66.34 38.88 L 68.00 37.69 L 69.61 36.51 L 71.16 35.36 L 72.66 34.22 L 74.09 33.10 L 75.46 32.00 L 76.75 30.92 L 77.98 29.87 L 79.12 28.84 L 80.19 27.84 L 81.18 26.86 L 82.08 25.91 L 82.89 24.99 L 83.61 24.10 L 84.24 23.25 L 84.77 22.42 L 85.21 21.63 L 85.56 20.88 L 85.80 20.15 L 85.95 19.47 L 86.00 18.82 L 85.95 18.21 L 85.80 17.64 L 85.56 17.11 L 85.21 16.62 L 84.77 16.17 L 84.24 15.76 L 83.61 15.39 L 82.89 15.07 L 82.08 14.79 L 81.18 14.55 L 80.19 14.35 L 79.12 14.20 L 77.98 14.09 L 76.75 14.02 L 75.46 14.00 L 74.09 14.02 L 72.66 14.09 L 71.16 14.20 L 69.61 14.35 L 68.00 14.55 L 66.34 14.79 L 64.64 15.07 L 62.90 15.39 L 61.12 15.76 L 59.32 16.17 L 57.48 16.62 L 55.63 17.11 L 53.76 17.64 L 51.88 18.21 L 50.00 18.82 L 48.12 19.47 L 46.24 20.15 L 44.37 20.88 L 42.52 21.63 L 40.68 22.42 L 38.88 23.25 L 37.10 24.10 L 35.36 24.99 L 33.66 25.91 L 32.00 26.86 L 30.39 27.84 L 28.84 28.84 L 27.34 29.87 L 25.91 30.92 L 24.54 32.00 L 23.25 33.10 L 22.02 34.22 L 20.88 35.36 L 19.81 36.51 L 18.82 37.69 L 17.92 38.88 L 17.11 40.08 L 16.39 41.29 L 15.76 42.52 L 15.23 43.75 L 14.79 44.99 L 14.44 46.24 L 14.20 47.49 L 14.05 48.74 L 14.00 50.00 L 14.05 51.26 L 14.20 52.51 L 14.44 53.76 L 14.79 55.01 L 15.23 56.25 L 15.76 57.48 L 16.39 58.71 L 17.11 59.92 L 17.92 61.12 L 18.82 62.31 L 19.81 63.49 L 20.88 64.64 L 22.02 65.78 L 23.25 66.90 L 24.54 68.00 L 25.91 69.08 L 27.34 70.13 L 28.84 71.16 L 30.39 72.16 L 32.00 73.14 L 33.66 74.09 L 35.36 75.01 L 37.10 75.90 L 38.88 76.75 L 40.68 77.58 L 42.52 78.37 L 44.37 79.12 L 46.24 79.85 L 48.12 80.53 L 50.00 81.18 L 51.88 81.79 L 53.76 82.36 L 55.63 82.89 L 57.48 83.38 L 59.32 83.83 L 61.12 84.24 L 62.90 84.61 L 64.64 84.93 L 66.34 85.21 L 68.00 85.45 L 69.61 85.65 L 71.16 85.80 L 72.66 85.91 L 74.09 85.98 L 75.46 86.00 L 76.75 85.98 L 77.98 85.91 L 79.12 85.80 L 80.19 85.65 L 81.18 85.45 L 82.08 85.21 L 82.89 84.93 L 83.61 84.61 L 84.24 84.24 L 84.77 83.83 L 85.21 83.38 L 85.56 82.89 L 85.80 82.36 L 85.95 81.79 L 86.00 81.18 L 85.95 80.53 L 85.80 79.85 L 85.56 79.12 L 85.21 78.37 L 84.77 77.58 L 84.24 76.75 L 83.61 75.90 L 82.89 75.01 L 82.08 74.09 L 81.18 73.14 L 80.19 72.16 L 79.12 71.16 L 77.98 70.13 L 76.75 69.08 L 75.46 68.00 L 74.09 66.90 L 72.66 65.78 L 71.16 64.64 L 69.61 63.49 L 68.00 62.31 L 66.34 61.12 L 64.64 59.92 L 62.90 58.71 L 61.12 57.48 L 59.32 56.25 L 57.48 55.01 L 55.63 53.76 L 53.76 52.51 L 51.88 51.26 L 50.00 50.00 L 48.12 48.74 L 46.24 47.49 L 44.37 46.24 L 42.52 44.99 L 40.68 43.75 L 38.88 42.52 L 37.10 41.29 L 35.36 40.08 L 33.66 38.88 L 32.00 37.69 L 30.39 36.51 L 28.84 35.36 L 27.34 34.22 L 25.91 33.10 L 24.54 32.00 L 23.25 30.92 L 22.02 29.87 L 20.88 28.84 L 19.81 27.84 L 18.82 26.86 L 17.92 25.91 L 17.11 24.99 L 16.39 24.10 L 15.76 23.25 L 15.23 22.42 L 14.79 21.63 L 14.44 20.88 L 14.20 20.15 L 14.05 19.47 L 14.00 18.82 L 14.05 18.21 L 14.20 17.64 L 14.44 17.11 L 14.79 16.62 L 15.23 16.17 L 15.76 15.76 L 16.39 15.39 L 17.11 15.07 L 17.92 14.79 L 18.82 14.55 L 19.81 14.35 L 20.88 14.20 L 22.02 14.09 L 23.25 14.02 L 24.54 14.00 L 25.91 14.02 L 27.34 14.09 L 28.84 14.20 L 30.39 14.35 L 32.00 14.55 L 33.66 14.79 L 35.36 15.07 L 37.10 15.39 L 38.88 15.76 L 40.68 16.17 L 42.52 16.62 L 44.37 17.11 L 46.24 17.64 L 48.12 18.21 L 50.00 18.82 L 51.88 19.47 L 53.76 20.15 L 55.63 20.88 L 57.48 21.63 L 59.32 22.42 L 61.12 23.25 L 62.90 24.10 L 64.64 24.99 L 66.34 25.91 L 68.00 26.86 L 69.61 27.84 L 71.16 28.84 L 72.66 29.87 L 74.09 30.92 L 75.46 32.00 L 76.75 33.10 L 77.98 34.22 L 79.12 35.36 L 80.19 36.51 L 81.18 37.69 L 82.08 38.88 L 82.89 40.08 L 83.61 41.29 L 84.24 42.52 L 84.77 43.75 L 85.21 44.99 L 85.56 46.24 L 85.80 47.49 L 85.95 48.74 L 86.00 50.00 Z" fill="none" stroke="#2A2118" stroke-width="1.6" stroke-linecap="round" stroke-linejoin="round"/>
</svg>